<svg width="13" height="17" viewBox="0 0 13 17" fill="none" xmlns="http://www.w3.org/2000/svg">
<path d="M6.354 0.707L6 0.353L6.354 0L6.708 0.353L6.354 0.707ZM6.854 15.707C6.854 15.8396 6.80132 15.9668 6.70755 16.0606C6.61379 16.1543 6.48661 16.207 6.354 16.207C6.22139 16.207 6.09421 16.1543 6.00045 16.0606C5.90668 15.9668 5.854 15.8396 5.854 15.707H6.854ZM0 6.353L6 0.353L6.708 1.061L0.708 7.061L0 6.353ZM6.708 0.353L12.708 6.353L12 7.061L6 1.061L6.708 0.353ZM6.854 0.707V15.707H5.854V0.707H6.854Z" fill="black"/>
</svg>
