<svg width="10" height="6" viewBox="0 0 10 6" fill="none" xmlns="http://www.w3.org/2000/svg">
<path d="M0.146894 5.35489C0.193339 5.40146 0.248515 5.4384 0.30926 5.46361C0.370005 5.48881 0.435127 5.50179 0.500894 5.50179C0.566661 5.50179 0.631782 5.48881 0.692528 5.46361C0.753273 5.4384 0.808448 5.40146 0.854894 5.35489L5.00089 1.20789L9.14689 5.35489C9.24078 5.44878 9.36812 5.50152 9.50089 5.50152C9.63367 5.50152 9.76101 5.44878 9.85489 5.35489C9.94878 5.26101 10.0015 5.13367 10.0015 5.00089C10.0015 4.86812 9.94878 4.74078 9.85489 4.64689L5.35489 0.146894C5.30845 0.10033 5.25327 0.0633873 5.19253 0.0381808C5.13178 0.0129744 5.06666 0 5.00089 0C4.93513 0 4.87001 0.0129744 4.80926 0.0381808C4.74852 0.0633873 4.69334 0.10033 4.64689 0.146894L0.146894 4.64689C0.10033 4.69334 0.0633878 4.74852 0.0381813 4.80926C0.0129749 4.87001 0 4.93513 0 5.00089C0 5.06666 0.0129749 5.13178 0.0381813 5.19253C0.0633878 5.25327 0.10033 5.30845 0.146894 5.35489Z" fill="black"/>
</svg>
